{
	"asset":{
		"generator":"Khronos glTF Blender I/O v4.5.47",
		"version":"2.0"
	},
	"scene":0,
	"scenes":[
		{
			"name":"Scene",
			"nodes":[
				0
			]
		}
	],
	"nodes":[
		{
			"mesh":0,
			"name":"\u7acb\u65b9\u4f53"
		}
	],
	"materials":[
		{
			"doubleSided":true,
			"name":"\u30de\u30c6\u30ea\u30a2\u30eb.001",
			"pbrMetallicRoughness":{
				"baseColorTexture":{
					"index":0
				},
				"metallicFactor":0,
				"roughnessFactor":0.5
			}
		}
	],
	"meshes":[
		{
			"name":"\u7acb\u65b9\u4f53.002",
			"primitives":[
				{
					"attributes":{
						"POSITION":0,
						"NORMAL":1,
						"TEXCOORD_0":2,
						"TEXCOORD_1":3
					},
					"indices":4,
					"material":0
				}
			]
		}
	],
	"textures":[
		{
			"sampler":0,
			"source":0
		}
	],
	"images":[
		{
			"mimeType":"image/png",
			"name":"CloseEnemy",
			"uri":"CloseEnemy.png"
		}
	],
	"accessors":[
		{
			"bufferView":0,
			"componentType":5126,
			"count":2508,
			"max":[
				8.40000057220459,
				7.5,
				7.5
			],
			"min":[
				-8.40000057220459,
				-7.5,
				-7.5
			],
			"type":"VEC3"
		},
		{
			"bufferView":1,
			"componentType":5126,
			"count":2508,
			"type":"VEC3"
		},
		{
			"bufferView":2,
			"componentType":5126,
			"count":2508,
			"type":"VEC2"
		},
		{
			"bufferView":3,
			"componentType":5126,
			"count":2508,
			"type":"VEC2"
		},
		{
			"bufferView":4,
			"componentType":5123,
			"count":3696,
			"type":"SCALAR"
		}
	],
	"bufferViews":[
		{
			"buffer":0,
			"byteLength":30096,
			"byteOffset":0,
			"target":34962
		},
		{
			"buffer":0,
			"byteLength":30096,
			"byteOffset":30096,
			"target":34962
		},
		{
			"buffer":0,
			"byteLength":20064,
			"byteOffset":60192,
			"target":34962
		},
		{
			"buffer":0,
			"byteLength":20064,
			"byteOffset":80256,
			"target":34962
		},
		{
			"buffer":0,
			"byteLength":7392,
			"byteOffset":100320,
			"target":34963
		}
	],
	"samplers":[
		{
			"magFilter":9729,
			"minFilter":9987
		}
	],
	"buffers":[
		{
			"byteLength":107712,
			"uri":"CloseEnemy.bin"
		}
	]
}
