{
	"asset":{
		"generator":"Khronos glTF Blender I/O v4.5.47",
		"version":"2.0"
	},
	"scene":0,
	"scenes":[
		{
			"name":"Scene",
			"nodes":[
				13
			]
		}
	],
	"nodes":[
		{
			"name":"L_Leg",
			"rotation":[
				0.7069414854049683,
				-2.766533668818738e-08,
				0.015287910588085651,
				0.7071068286895752
			],
			"scale":[
				1,
				0.9999999403953552,
				0.9999999403953552
			],
			"translation":[
				0,
				0.5,
				2.0547304302453995e-08
			]
		},
		{
			"children":[
				0
			],
			"name":"L_Hip",
			"rotation":[
				5.926908741571424e-09,
				5.926893642538289e-09,
				-0.7071067690849304,
				0.7071067690849304
			],
			"scale":[
				0.9999999403953552,
				1,
				0.9999999403953552
			],
			"translation":[
				2.2003004293910536e-22,
				0.9999998807907104,
				-3.864988684654236e-08
			]
		},
		{
			"name":"L_Arm",
			"rotation":[
				1.0055401813973498e-28,
				-1.7763568394002505e-15,
				-9.7456437428934e-31,
				1
			],
			"translation":[
				1.756611744951897e-09,
				1,
				2.629036544021801e-09
			]
		},
		{
			"children":[
				2
			],
			"name":"L_Shoulder",
			"rotation":[
				-2.6692537957728746e-08,
				-2.6692537957728746e-08,
				-0.7071067690849304,
				0.7071067690849304
			],
			"translation":[
				-2.4541525870298095e-24,
				1.2000000476837158,
				2.1761505930584235e-09
			]
		},
		{
			"name":"Hat",
			"rotation":[
				-5.5511147922535377e-17,
				-1.0097418984975843e-28,
				-1.121661317492482e-30,
				1
			],
			"translation":[
				6.2739093868358595e-30,
				0.6692239046096802,
				1.8626449271863521e-09
			]
		},
		{
			"children":[
				4
			],
			"name":"Head",
			"rotation":[
				-9.313224080820248e-10,
				-1.1779049903271197e-21,
				-8.470329472543003e-22,
				1
			],
			"translation":[
				-2.4541525870298095e-24,
				1.2000000476837158,
				2.1761505930584235e-09
			]
		},
		{
			"name":"R_Arm",
			"rotation":[
				-1.0055401813973498e-28,
				1.7763568394002505e-15,
				-9.7456437428934e-31,
				1
			],
			"translation":[
				-1.756611744951897e-09,
				1,
				2.629036544021801e-09
			]
		},
		{
			"children":[
				6
			],
			"name":"R_Shoulder",
			"rotation":[
				-2.6692537957728746e-08,
				2.6692537957728746e-08,
				0.7071067690849304,
				0.7071067690849304
			],
			"translation":[
				-2.2199271092212218e-16,
				1.2000000476837158,
				2.1761505930584235e-09
			]
		},
		{
			"children":[
				3,
				5,
				7
			],
			"name":"Spine",
			"rotation":[
				-0.7147098183631897,
				-7.259967671794602e-15,
				-7.259968518827549e-15,
				0.6994211673736572
			],
			"scale":[
				1,
				0.9999999403953552,
				0.9999999403953552
			],
			"translation":[
				2.2003004293910536e-22,
				0.9999998807907104,
				-3.864988684654236e-08
			]
		},
		{
			"name":"R_Leg",
			"rotation":[
				0.7069414854049683,
				2.766533668818738e-08,
				-0.015287910588085651,
				0.7071068286895752
			],
			"scale":[
				1,
				0.9999999403953552,
				0.9999999403953552
			],
			"translation":[
				0,
				0.5,
				2.0547304302453995e-08
			]
		},
		{
			"children":[
				9
			],
			"name":"R_Hip",
			"rotation":[
				5.926893642538289e-09,
				-5.926908741571424e-09,
				0.7071067690849304,
				0.7071067690849304
			],
			"scale":[
				0.9999999403953552,
				1,
				0.9999999403953552
			],
			"translation":[
				-2.2199247269410577e-16,
				0.9999998807907104,
				-3.864988684654236e-08
			]
		},
		{
			"children":[
				1,
				8,
				10
			],
			"name":"Root",
			"rotation":[
				0.7147098183631897,
				7.259968518827549e-15,
				7.259967671794602e-15,
				0.6994210481643677
			],
			"scale":[
				1,
				1.0000001192092896,
				1.0000001192092896
			],
			"translation":[
				-1.1099634884361619e-16,
				0.24478057026863098,
				-0.9764992594718933
			]
		},
		{
			"mesh":0,
			"name":"Body",
			"skin":0
		},
		{
			"children":[
				12,
				11
			],
			"name":"\u30a2\u30fc\u30de\u30c1\u30e5\u30a2",
			"translation":[
				0,
				0.4085281789302826,
				0
			]
		}
	],
	"animations":[
		{
			"channels":[
				{
					"sampler":0,
					"target":{
						"node":6,
						"path":"translation"
					}
				},
				{
					"sampler":1,
					"target":{
						"node":6,
						"path":"rotation"
					}
				},
				{
					"sampler":2,
					"target":{
						"node":6,
						"path":"scale"
					}
				},
				{
					"sampler":3,
					"target":{
						"node":11,
						"path":"translation"
					}
				},
				{
					"sampler":4,
					"target":{
						"node":11,
						"path":"rotation"
					}
				},
				{
					"sampler":5,
					"target":{
						"node":11,
						"path":"scale"
					}
				},
				{
					"sampler":6,
					"target":{
						"node":1,
						"path":"translation"
					}
				},
				{
					"sampler":7,
					"target":{
						"node":1,
						"path":"rotation"
					}
				},
				{
					"sampler":8,
					"target":{
						"node":1,
						"path":"scale"
					}
				},
				{
					"sampler":9,
					"target":{
						"node":0,
						"path":"translation"
					}
				},
				{
					"sampler":10,
					"target":{
						"node":0,
						"path":"rotation"
					}
				},
				{
					"sampler":11,
					"target":{
						"node":0,
						"path":"scale"
					}
				},
				{
					"sampler":12,
					"target":{
						"node":8,
						"path":"translation"
					}
				},
				{
					"sampler":13,
					"target":{
						"node":8,
						"path":"rotation"
					}
				},
				{
					"sampler":14,
					"target":{
						"node":8,
						"path":"scale"
					}
				},
				{
					"sampler":15,
					"target":{
						"node":3,
						"path":"translation"
					}
				},
				{
					"sampler":16,
					"target":{
						"node":3,
						"path":"rotation"
					}
				},
				{
					"sampler":17,
					"target":{
						"node":3,
						"path":"scale"
					}
				},
				{
					"sampler":18,
					"target":{
						"node":2,
						"path":"translation"
					}
				},
				{
					"sampler":19,
					"target":{
						"node":2,
						"path":"rotation"
					}
				},
				{
					"sampler":20,
					"target":{
						"node":2,
						"path":"scale"
					}
				},
				{
					"sampler":21,
					"target":{
						"node":5,
						"path":"translation"
					}
				},
				{
					"sampler":22,
					"target":{
						"node":5,
						"path":"rotation"
					}
				},
				{
					"sampler":23,
					"target":{
						"node":5,
						"path":"scale"
					}
				},
				{
					"sampler":24,
					"target":{
						"node":4,
						"path":"translation"
					}
				},
				{
					"sampler":25,
					"target":{
						"node":4,
						"path":"rotation"
					}
				},
				{
					"sampler":26,
					"target":{
						"node":4,
						"path":"scale"
					}
				},
				{
					"sampler":27,
					"target":{
						"node":7,
						"path":"translation"
					}
				},
				{
					"sampler":28,
					"target":{
						"node":7,
						"path":"rotation"
					}
				},
				{
					"sampler":29,
					"target":{
						"node":7,
						"path":"scale"
					}
				},
				{
					"sampler":30,
					"target":{
						"node":10,
						"path":"translation"
					}
				},
				{
					"sampler":31,
					"target":{
						"node":10,
						"path":"rotation"
					}
				},
				{
					"sampler":32,
					"target":{
						"node":10,
						"path":"scale"
					}
				},
				{
					"sampler":33,
					"target":{
						"node":9,
						"path":"translation"
					}
				},
				{
					"sampler":34,
					"target":{
						"node":9,
						"path":"rotation"
					}
				},
				{
					"sampler":35,
					"target":{
						"node":9,
						"path":"scale"
					}
				}
			],
			"name":"Attack1",
			"samplers":[
				{
					"input":7,
					"interpolation":"CUBICSPLINE",
					"output":8
				},
				{
					"input":7,
					"interpolation":"CUBICSPLINE",
					"output":9
				},
				{
					"input":7,
					"interpolation":"CUBICSPLINE",
					"output":10
				},
				{
					"input":7,
					"interpolation":"CUBICSPLINE",
					"output":11
				},
				{
					"input":7,
					"interpolation":"CUBICSPLINE",
					"output":12
				},
				{
					"input":7,
					"interpolation":"CUBICSPLINE",
					"output":13
				},
				{
					"input":7,
					"interpolation":"CUBICSPLINE",
					"output":14
				},
				{
					"input":7,
					"interpolation":"CUBICSPLINE",
					"output":15
				},
				{
					"input":7,
					"interpolation":"CUBICSPLINE",
					"output":16
				},
				{
					"input":7,
					"interpolation":"CUBICSPLINE",
					"output":17
				},
				{
					"input":7,
					"interpolation":"CUBICSPLINE",
					"output":18
				},
				{
					"input":7,
					"interpolation":"CUBICSPLINE",
					"output":19
				},
				{
					"input":7,
					"interpolation":"CUBICSPLINE",
					"output":20
				},
				{
					"input":7,
					"interpolation":"CUBICSPLINE",
					"output":21
				},
				{
					"input":7,
					"interpolation":"CUBICSPLINE",
					"output":22
				},
				{
					"input":7,
					"interpolation":"CUBICSPLINE",
					"output":23
				},
				{
					"input":7,
					"interpolation":"CUBICSPLINE",
					"output":24
				},
				{
					"input":7,
					"interpolation":"CUBICSPLINE",
					"output":25
				},
				{
					"input":7,
					"interpolation":"CUBICSPLINE",
					"output":26
				},
				{
					"input":7,
					"interpolation":"CUBICSPLINE",
					"output":27
				},
				{
					"input":7,
					"interpolation":"CUBICSPLINE",
					"output":28
				},
				{
					"input":7,
					"interpolation":"CUBICSPLINE",
					"output":29
				},
				{
					"input":7,
					"interpolation":"CUBICSPLINE",
					"output":30
				},
				{
					"input":7,
					"interpolation":"CUBICSPLINE",
					"output":31
				},
				{
					"input":7,
					"interpolation":"CUBICSPLINE",
					"output":32
				},
				{
					"input":7,
					"interpolation":"CUBICSPLINE",
					"output":33
				},
				{
					"input":7,
					"interpolation":"CUBICSPLINE",
					"output":34
				},
				{
					"input":7,
					"interpolation":"CUBICSPLINE",
					"output":35
				},
				{
					"input":7,
					"interpolation":"CUBICSPLINE",
					"output":36
				},
				{
					"input":7,
					"interpolation":"CUBICSPLINE",
					"output":37
				},
				{
					"input":7,
					"interpolation":"CUBICSPLINE",
					"output":38
				},
				{
					"input":7,
					"interpolation":"CUBICSPLINE",
					"output":39
				},
				{
					"input":7,
					"interpolation":"CUBICSPLINE",
					"output":40
				},
				{
					"input":7,
					"interpolation":"CUBICSPLINE",
					"output":41
				},
				{
					"input":7,
					"interpolation":"CUBICSPLINE",
					"output":42
				},
				{
					"input":7,
					"interpolation":"CUBICSPLINE",
					"output":43
				}
			]
		},
		{
			"channels":[
				{
					"sampler":0,
					"target":{
						"node":11,
						"path":"translation"
					}
				},
				{
					"sampler":1,
					"target":{
						"node":11,
						"path":"rotation"
					}
				},
				{
					"sampler":2,
					"target":{
						"node":11,
						"path":"scale"
					}
				},
				{
					"sampler":3,
					"target":{
						"node":1,
						"path":"translation"
					}
				},
				{
					"sampler":4,
					"target":{
						"node":1,
						"path":"rotation"
					}
				},
				{
					"sampler":5,
					"target":{
						"node":1,
						"path":"scale"
					}
				},
				{
					"sampler":6,
					"target":{
						"node":0,
						"path":"translation"
					}
				},
				{
					"sampler":7,
					"target":{
						"node":0,
						"path":"rotation"
					}
				},
				{
					"sampler":8,
					"target":{
						"node":0,
						"path":"scale"
					}
				},
				{
					"sampler":9,
					"target":{
						"node":8,
						"path":"translation"
					}
				},
				{
					"sampler":10,
					"target":{
						"node":8,
						"path":"rotation"
					}
				},
				{
					"sampler":11,
					"target":{
						"node":8,
						"path":"scale"
					}
				},
				{
					"sampler":12,
					"target":{
						"node":3,
						"path":"translation"
					}
				},
				{
					"sampler":13,
					"target":{
						"node":3,
						"path":"rotation"
					}
				},
				{
					"sampler":14,
					"target":{
						"node":3,
						"path":"scale"
					}
				},
				{
					"sampler":15,
					"target":{
						"node":2,
						"path":"translation"
					}
				},
				{
					"sampler":16,
					"target":{
						"node":2,
						"path":"rotation"
					}
				},
				{
					"sampler":17,
					"target":{
						"node":2,
						"path":"scale"
					}
				},
				{
					"sampler":18,
					"target":{
						"node":5,
						"path":"translation"
					}
				},
				{
					"sampler":19,
					"target":{
						"node":5,
						"path":"rotation"
					}
				},
				{
					"sampler":20,
					"target":{
						"node":5,
						"path":"scale"
					}
				},
				{
					"sampler":21,
					"target":{
						"node":4,
						"path":"translation"
					}
				},
				{
					"sampler":22,
					"target":{
						"node":4,
						"path":"rotation"
					}
				},
				{
					"sampler":23,
					"target":{
						"node":4,
						"path":"scale"
					}
				},
				{
					"sampler":24,
					"target":{
						"node":7,
						"path":"translation"
					}
				},
				{
					"sampler":25,
					"target":{
						"node":7,
						"path":"rotation"
					}
				},
				{
					"sampler":26,
					"target":{
						"node":7,
						"path":"scale"
					}
				},
				{
					"sampler":27,
					"target":{
						"node":6,
						"path":"translation"
					}
				},
				{
					"sampler":28,
					"target":{
						"node":6,
						"path":"rotation"
					}
				},
				{
					"sampler":29,
					"target":{
						"node":6,
						"path":"scale"
					}
				},
				{
					"sampler":30,
					"target":{
						"node":10,
						"path":"translation"
					}
				},
				{
					"sampler":31,
					"target":{
						"node":10,
						"path":"rotation"
					}
				},
				{
					"sampler":32,
					"target":{
						"node":10,
						"path":"scale"
					}
				},
				{
					"sampler":33,
					"target":{
						"node":9,
						"path":"translation"
					}
				},
				{
					"sampler":34,
					"target":{
						"node":9,
						"path":"rotation"
					}
				},
				{
					"sampler":35,
					"target":{
						"node":9,
						"path":"scale"
					}
				}
			],
			"name":"Attack2",
			"samplers":[
				{
					"input":7,
					"interpolation":"CUBICSPLINE",
					"output":44
				},
				{
					"input":7,
					"interpolation":"CUBICSPLINE",
					"output":45
				},
				{
					"input":7,
					"interpolation":"CUBICSPLINE",
					"output":46
				},
				{
					"input":7,
					"interpolation":"CUBICSPLINE",
					"output":47
				},
				{
					"input":7,
					"interpolation":"CUBICSPLINE",
					"output":48
				},
				{
					"input":7,
					"interpolation":"CUBICSPLINE",
					"output":49
				},
				{
					"input":7,
					"interpolation":"CUBICSPLINE",
					"output":50
				},
				{
					"input":7,
					"interpolation":"CUBICSPLINE",
					"output":51
				},
				{
					"input":7,
					"interpolation":"CUBICSPLINE",
					"output":52
				},
				{
					"input":7,
					"interpolation":"CUBICSPLINE",
					"output":53
				},
				{
					"input":7,
					"interpolation":"CUBICSPLINE",
					"output":54
				},
				{
					"input":7,
					"interpolation":"CUBICSPLINE",
					"output":55
				},
				{
					"input":7,
					"interpolation":"CUBICSPLINE",
					"output":56
				},
				{
					"input":7,
					"interpolation":"CUBICSPLINE",
					"output":57
				},
				{
					"input":7,
					"interpolation":"CUBICSPLINE",
					"output":58
				},
				{
					"input":7,
					"interpolation":"CUBICSPLINE",
					"output":59
				},
				{
					"input":7,
					"interpolation":"CUBICSPLINE",
					"output":60
				},
				{
					"input":7,
					"interpolation":"CUBICSPLINE",
					"output":61
				},
				{
					"input":7,
					"interpolation":"CUBICSPLINE",
					"output":62
				},
				{
					"input":7,
					"interpolation":"CUBICSPLINE",
					"output":63
				},
				{
					"input":7,
					"interpolation":"CUBICSPLINE",
					"output":64
				},
				{
					"input":7,
					"interpolation":"CUBICSPLINE",
					"output":65
				},
				{
					"input":7,
					"interpolation":"CUBICSPLINE",
					"output":66
				},
				{
					"input":7,
					"interpolation":"CUBICSPLINE",
					"output":67
				},
				{
					"input":7,
					"interpolation":"CUBICSPLINE",
					"output":68
				},
				{
					"input":7,
					"interpolation":"CUBICSPLINE",
					"output":69
				},
				{
					"input":7,
					"interpolation":"CUBICSPLINE",
					"output":70
				},
				{
					"input":7,
					"interpolation":"CUBICSPLINE",
					"output":71
				},
				{
					"input":7,
					"interpolation":"CUBICSPLINE",
					"output":72
				},
				{
					"input":7,
					"interpolation":"CUBICSPLINE",
					"output":73
				},
				{
					"input":7,
					"interpolation":"CUBICSPLINE",
					"output":74
				},
				{
					"input":7,
					"interpolation":"CUBICSPLINE",
					"output":75
				},
				{
					"input":7,
					"interpolation":"CUBICSPLINE",
					"output":76
				},
				{
					"input":7,
					"interpolation":"CUBICSPLINE",
					"output":77
				},
				{
					"input":7,
					"interpolation":"CUBICSPLINE",
					"output":78
				},
				{
					"input":7,
					"interpolation":"CUBICSPLINE",
					"output":79
				}
			]
		},
		{
			"channels":[
				{
					"sampler":0,
					"target":{
						"node":11,
						"path":"translation"
					}
				},
				{
					"sampler":1,
					"target":{
						"node":11,
						"path":"rotation"
					}
				},
				{
					"sampler":2,
					"target":{
						"node":11,
						"path":"scale"
					}
				},
				{
					"sampler":3,
					"target":{
						"node":1,
						"path":"translation"
					}
				},
				{
					"sampler":4,
					"target":{
						"node":1,
						"path":"rotation"
					}
				},
				{
					"sampler":5,
					"target":{
						"node":1,
						"path":"scale"
					}
				},
				{
					"sampler":6,
					"target":{
						"node":0,
						"path":"translation"
					}
				},
				{
					"sampler":7,
					"target":{
						"node":0,
						"path":"rotation"
					}
				},
				{
					"sampler":8,
					"target":{
						"node":0,
						"path":"scale"
					}
				},
				{
					"sampler":9,
					"target":{
						"node":8,
						"path":"translation"
					}
				},
				{
					"sampler":10,
					"target":{
						"node":8,
						"path":"rotation"
					}
				},
				{
					"sampler":11,
					"target":{
						"node":8,
						"path":"scale"
					}
				},
				{
					"sampler":12,
					"target":{
						"node":3,
						"path":"translation"
					}
				},
				{
					"sampler":13,
					"target":{
						"node":3,
						"path":"rotation"
					}
				},
				{
					"sampler":14,
					"target":{
						"node":3,
						"path":"scale"
					}
				},
				{
					"sampler":15,
					"target":{
						"node":2,
						"path":"translation"
					}
				},
				{
					"sampler":16,
					"target":{
						"node":2,
						"path":"rotation"
					}
				},
				{
					"sampler":17,
					"target":{
						"node":2,
						"path":"scale"
					}
				},
				{
					"sampler":18,
					"target":{
						"node":5,
						"path":"translation"
					}
				},
				{
					"sampler":19,
					"target":{
						"node":5,
						"path":"rotation"
					}
				},
				{
					"sampler":20,
					"target":{
						"node":5,
						"path":"scale"
					}
				},
				{
					"sampler":21,
					"target":{
						"node":4,
						"path":"translation"
					}
				},
				{
					"sampler":22,
					"target":{
						"node":4,
						"path":"rotation"
					}
				},
				{
					"sampler":23,
					"target":{
						"node":4,
						"path":"scale"
					}
				},
				{
					"sampler":24,
					"target":{
						"node":7,
						"path":"translation"
					}
				},
				{
					"sampler":25,
					"target":{
						"node":7,
						"path":"rotation"
					}
				},
				{
					"sampler":26,
					"target":{
						"node":7,
						"path":"scale"
					}
				},
				{
					"sampler":27,
					"target":{
						"node":6,
						"path":"translation"
					}
				},
				{
					"sampler":28,
					"target":{
						"node":6,
						"path":"rotation"
					}
				},
				{
					"sampler":29,
					"target":{
						"node":6,
						"path":"scale"
					}
				},
				{
					"sampler":30,
					"target":{
						"node":10,
						"path":"translation"
					}
				},
				{
					"sampler":31,
					"target":{
						"node":10,
						"path":"rotation"
					}
				},
				{
					"sampler":32,
					"target":{
						"node":10,
						"path":"scale"
					}
				},
				{
					"sampler":33,
					"target":{
						"node":9,
						"path":"translation"
					}
				},
				{
					"sampler":34,
					"target":{
						"node":9,
						"path":"rotation"
					}
				},
				{
					"sampler":35,
					"target":{
						"node":9,
						"path":"scale"
					}
				}
			],
			"name":"Attack3",
			"samplers":[
				{
					"input":80,
					"interpolation":"CUBICSPLINE",
					"output":81
				},
				{
					"input":80,
					"interpolation":"CUBICSPLINE",
					"output":82
				},
				{
					"input":80,
					"interpolation":"CUBICSPLINE",
					"output":83
				},
				{
					"input":80,
					"interpolation":"CUBICSPLINE",
					"output":84
				},
				{
					"input":80,
					"interpolation":"CUBICSPLINE",
					"output":85
				},
				{
					"input":80,
					"interpolation":"CUBICSPLINE",
					"output":86
				},
				{
					"input":80,
					"interpolation":"CUBICSPLINE",
					"output":87
				},
				{
					"input":80,
					"interpolation":"CUBICSPLINE",
					"output":88
				},
				{
					"input":80,
					"interpolation":"CUBICSPLINE",
					"output":89
				},
				{
					"input":80,
					"interpolation":"CUBICSPLINE",
					"output":90
				},
				{
					"input":80,
					"interpolation":"CUBICSPLINE",
					"output":91
				},
				{
					"input":80,
					"interpolation":"CUBICSPLINE",
					"output":92
				},
				{
					"input":80,
					"interpolation":"CUBICSPLINE",
					"output":93
				},
				{
					"input":80,
					"interpolation":"CUBICSPLINE",
					"output":94
				},
				{
					"input":80,
					"interpolation":"CUBICSPLINE",
					"output":95
				},
				{
					"input":80,
					"interpolation":"CUBICSPLINE",
					"output":96
				},
				{
					"input":80,
					"interpolation":"CUBICSPLINE",
					"output":97
				},
				{
					"input":80,
					"interpolation":"CUBICSPLINE",
					"output":98
				},
				{
					"input":80,
					"interpolation":"CUBICSPLINE",
					"output":99
				},
				{
					"input":80,
					"interpolation":"CUBICSPLINE",
					"output":100
				},
				{
					"input":80,
					"interpolation":"CUBICSPLINE",
					"output":101
				},
				{
					"input":80,
					"interpolation":"CUBICSPLINE",
					"output":102
				},
				{
					"input":80,
					"interpolation":"CUBICSPLINE",
					"output":103
				},
				{
					"input":80,
					"interpolation":"CUBICSPLINE",
					"output":104
				},
				{
					"input":80,
					"interpolation":"CUBICSPLINE",
					"output":105
				},
				{
					"input":80,
					"interpolation":"CUBICSPLINE",
					"output":106
				},
				{
					"input":80,
					"interpolation":"CUBICSPLINE",
					"output":107
				},
				{
					"input":80,
					"interpolation":"CUBICSPLINE",
					"output":108
				},
				{
					"input":80,
					"interpolation":"CUBICSPLINE",
					"output":109
				},
				{
					"input":80,
					"interpolation":"CUBICSPLINE",
					"output":110
				},
				{
					"input":80,
					"interpolation":"CUBICSPLINE",
					"output":111
				},
				{
					"input":80,
					"interpolation":"CUBICSPLINE",
					"output":112
				},
				{
					"input":80,
					"interpolation":"CUBICSPLINE",
					"output":113
				},
				{
					"input":80,
					"interpolation":"CUBICSPLINE",
					"output":114
				},
				{
					"input":80,
					"interpolation":"CUBICSPLINE",
					"output":115
				},
				{
					"input":80,
					"interpolation":"CUBICSPLINE",
					"output":116
				}
			]
		},
		{
			"channels":[
				{
					"sampler":0,
					"target":{
						"node":11,
						"path":"translation"
					}
				},
				{
					"sampler":1,
					"target":{
						"node":11,
						"path":"rotation"
					}
				},
				{
					"sampler":2,
					"target":{
						"node":11,
						"path":"scale"
					}
				},
				{
					"sampler":3,
					"target":{
						"node":1,
						"path":"translation"
					}
				},
				{
					"sampler":4,
					"target":{
						"node":1,
						"path":"rotation"
					}
				},
				{
					"sampler":5,
					"target":{
						"node":1,
						"path":"scale"
					}
				},
				{
					"sampler":6,
					"target":{
						"node":0,
						"path":"translation"
					}
				},
				{
					"sampler":7,
					"target":{
						"node":0,
						"path":"rotation"
					}
				},
				{
					"sampler":8,
					"target":{
						"node":0,
						"path":"scale"
					}
				},
				{
					"sampler":9,
					"target":{
						"node":8,
						"path":"translation"
					}
				},
				{
					"sampler":10,
					"target":{
						"node":8,
						"path":"rotation"
					}
				},
				{
					"sampler":11,
					"target":{
						"node":8,
						"path":"scale"
					}
				},
				{
					"sampler":12,
					"target":{
						"node":3,
						"path":"translation"
					}
				},
				{
					"sampler":13,
					"target":{
						"node":3,
						"path":"rotation"
					}
				},
				{
					"sampler":14,
					"target":{
						"node":3,
						"path":"scale"
					}
				},
				{
					"sampler":15,
					"target":{
						"node":2,
						"path":"translation"
					}
				},
				{
					"sampler":16,
					"target":{
						"node":2,
						"path":"rotation"
					}
				},
				{
					"sampler":17,
					"target":{
						"node":2,
						"path":"scale"
					}
				},
				{
					"sampler":18,
					"target":{
						"node":5,
						"path":"translation"
					}
				},
				{
					"sampler":19,
					"target":{
						"node":5,
						"path":"rotation"
					}
				},
				{
					"sampler":20,
					"target":{
						"node":5,
						"path":"scale"
					}
				},
				{
					"sampler":21,
					"target":{
						"node":4,
						"path":"translation"
					}
				},
				{
					"sampler":22,
					"target":{
						"node":4,
						"path":"rotation"
					}
				},
				{
					"sampler":23,
					"target":{
						"node":4,
						"path":"scale"
					}
				},
				{
					"sampler":24,
					"target":{
						"node":7,
						"path":"translation"
					}
				},
				{
					"sampler":25,
					"target":{
						"node":7,
						"path":"rotation"
					}
				},
				{
					"sampler":26,
					"target":{
						"node":7,
						"path":"scale"
					}
				},
				{
					"sampler":27,
					"target":{
						"node":6,
						"path":"translation"
					}
				},
				{
					"sampler":28,
					"target":{
						"node":6,
						"path":"rotation"
					}
				},
				{
					"sampler":29,
					"target":{
						"node":6,
						"path":"scale"
					}
				},
				{
					"sampler":30,
					"target":{
						"node":10,
						"path":"translation"
					}
				},
				{
					"sampler":31,
					"target":{
						"node":10,
						"path":"rotation"
					}
				},
				{
					"sampler":32,
					"target":{
						"node":10,
						"path":"scale"
					}
				},
				{
					"sampler":33,
					"target":{
						"node":9,
						"path":"translation"
					}
				},
				{
					"sampler":34,
					"target":{
						"node":9,
						"path":"rotation"
					}
				},
				{
					"sampler":35,
					"target":{
						"node":9,
						"path":"scale"
					}
				}
			],
			"name":"Root",
			"samplers":[
				{
					"input":117,
					"interpolation":"CUBICSPLINE",
					"output":118
				},
				{
					"input":117,
					"interpolation":"CUBICSPLINE",
					"output":119
				},
				{
					"input":117,
					"interpolation":"CUBICSPLINE",
					"output":120
				},
				{
					"input":117,
					"interpolation":"CUBICSPLINE",
					"output":121
				},
				{
					"input":117,
					"interpolation":"CUBICSPLINE",
					"output":122
				},
				{
					"input":117,
					"interpolation":"CUBICSPLINE",
					"output":123
				},
				{
					"input":117,
					"interpolation":"CUBICSPLINE",
					"output":124
				},
				{
					"input":117,
					"interpolation":"CUBICSPLINE",
					"output":125
				},
				{
					"input":117,
					"interpolation":"CUBICSPLINE",
					"output":126
				},
				{
					"input":117,
					"interpolation":"CUBICSPLINE",
					"output":127
				},
				{
					"input":117,
					"interpolation":"CUBICSPLINE",
					"output":128
				},
				{
					"input":117,
					"interpolation":"CUBICSPLINE",
					"output":129
				},
				{
					"input":117,
					"interpolation":"CUBICSPLINE",
					"output":130
				},
				{
					"input":117,
					"interpolation":"CUBICSPLINE",
					"output":131
				},
				{
					"input":117,
					"interpolation":"CUBICSPLINE",
					"output":132
				},
				{
					"input":117,
					"interpolation":"CUBICSPLINE",
					"output":133
				},
				{
					"input":117,
					"interpolation":"CUBICSPLINE",
					"output":134
				},
				{
					"input":117,
					"interpolation":"CUBICSPLINE",
					"output":135
				},
				{
					"input":117,
					"interpolation":"CUBICSPLINE",
					"output":136
				},
				{
					"input":117,
					"interpolation":"CUBICSPLINE",
					"output":137
				},
				{
					"input":117,
					"interpolation":"CUBICSPLINE",
					"output":138
				},
				{
					"input":117,
					"interpolation":"CUBICSPLINE",
					"output":139
				},
				{
					"input":117,
					"interpolation":"CUBICSPLINE",
					"output":140
				},
				{
					"input":117,
					"interpolation":"CUBICSPLINE",
					"output":141
				},
				{
					"input":117,
					"interpolation":"CUBICSPLINE",
					"output":142
				},
				{
					"input":117,
					"interpolation":"CUBICSPLINE",
					"output":143
				},
				{
					"input":117,
					"interpolation":"CUBICSPLINE",
					"output":144
				},
				{
					"input":117,
					"interpolation":"CUBICSPLINE",
					"output":145
				},
				{
					"input":117,
					"interpolation":"CUBICSPLINE",
					"output":146
				},
				{
					"input":117,
					"interpolation":"CUBICSPLINE",
					"output":147
				},
				{
					"input":117,
					"interpolation":"CUBICSPLINE",
					"output":148
				},
				{
					"input":117,
					"interpolation":"CUBICSPLINE",
					"output":149
				},
				{
					"input":117,
					"interpolation":"CUBICSPLINE",
					"output":150
				},
				{
					"input":117,
					"interpolation":"CUBICSPLINE",
					"output":151
				},
				{
					"input":117,
					"interpolation":"CUBICSPLINE",
					"output":152
				},
				{
					"input":117,
					"interpolation":"CUBICSPLINE",
					"output":153
				}
			]
		},
		{
			"channels":[
				{
					"sampler":0,
					"target":{
						"node":0,
						"path":"translation"
					}
				},
				{
					"sampler":1,
					"target":{
						"node":0,
						"path":"rotation"
					}
				},
				{
					"sampler":2,
					"target":{
						"node":0,
						"path":"scale"
					}
				},
				{
					"sampler":3,
					"target":{
						"node":9,
						"path":"translation"
					}
				},
				{
					"sampler":4,
					"target":{
						"node":9,
						"path":"rotation"
					}
				},
				{
					"sampler":5,
					"target":{
						"node":9,
						"path":"scale"
					}
				},
				{
					"sampler":6,
					"target":{
						"node":2,
						"path":"translation"
					}
				},
				{
					"sampler":7,
					"target":{
						"node":2,
						"path":"rotation"
					}
				},
				{
					"sampler":8,
					"target":{
						"node":2,
						"path":"scale"
					}
				},
				{
					"sampler":9,
					"target":{
						"node":6,
						"path":"translation"
					}
				},
				{
					"sampler":10,
					"target":{
						"node":6,
						"path":"rotation"
					}
				},
				{
					"sampler":11,
					"target":{
						"node":6,
						"path":"scale"
					}
				},
				{
					"sampler":12,
					"target":{
						"node":11,
						"path":"translation"
					}
				},
				{
					"sampler":13,
					"target":{
						"node":11,
						"path":"rotation"
					}
				},
				{
					"sampler":14,
					"target":{
						"node":11,
						"path":"scale"
					}
				}
			],
			"name":"Run",
			"samplers":[
				{
					"input":154,
					"interpolation":"CUBICSPLINE",
					"output":155
				},
				{
					"input":154,
					"interpolation":"CUBICSPLINE",
					"output":156
				},
				{
					"input":154,
					"interpolation":"CUBICSPLINE",
					"output":157
				},
				{
					"input":154,
					"interpolation":"CUBICSPLINE",
					"output":158
				},
				{
					"input":154,
					"interpolation":"CUBICSPLINE",
					"output":159
				},
				{
					"input":154,
					"interpolation":"CUBICSPLINE",
					"output":160
				},
				{
					"input":154,
					"interpolation":"CUBICSPLINE",
					"output":161
				},
				{
					"input":154,
					"interpolation":"CUBICSPLINE",
					"output":162
				},
				{
					"input":154,
					"interpolation":"CUBICSPLINE",
					"output":163
				},
				{
					"input":154,
					"interpolation":"CUBICSPLINE",
					"output":164
				},
				{
					"input":154,
					"interpolation":"CUBICSPLINE",
					"output":165
				},
				{
					"input":154,
					"interpolation":"CUBICSPLINE",
					"output":166
				},
				{
					"input":154,
					"interpolation":"CUBICSPLINE",
					"output":167
				},
				{
					"input":154,
					"interpolation":"CUBICSPLINE",
					"output":168
				},
				{
					"input":154,
					"interpolation":"CUBICSPLINE",
					"output":169
				}
			]
		}
	],
	"materials":[
		{
			"doubleSided":true,
			"name":"\u30de\u30c6\u30ea\u30a2\u30eb",
			"pbrMetallicRoughness":{
				"baseColorTexture":{
					"index":0
				},
				"metallicFactor":0,
				"roughnessFactor":0.5
			}
		}
	],
	"meshes":[
		{
			"name":"\u7acb\u65b9\u4f53",
			"primitives":[
				{
					"attributes":{
						"POSITION":0,
						"NORMAL":1,
						"TEXCOORD_0":2,
						"JOINTS_0":3,
						"WEIGHTS_0":4
					},
					"indices":5,
					"material":0
				}
			]
		}
	],
	"textures":[
		{
			"sampler":0,
			"source":0
		}
	],
	"images":[
		{
			"mimeType":"image/png",
			"name":"Player",
			"uri":"Player.png"
		}
	],
	"skins":[
		{
			"inverseBindMatrices":6,
			"joints":[
				11,
				1,
				0,
				8,
				3,
				2,
				5,
				4,
				7,
				6,
				10,
				9
			],
			"name":"\u30a2\u30fc\u30de\u30c1\u30e5\u30a2"
		}
	],
	"accessors":[
		{
			"bufferView":0,
			"componentType":5126,
			"count":2227,
			"max":[
				2.127411365509033,
				3.6500000953674316,
				1
			],
			"min":[
				-2.127411365509033,
				0,
				-1
			],
			"type":"VEC3"
		},
		{
			"bufferView":1,
			"componentType":5126,
			"count":2227,
			"type":"VEC3"
		},
		{
			"bufferView":2,
			"componentType":5126,
			"count":2227,
			"type":"VEC2"
		},
		{
			"bufferView":3,
			"componentType":5121,
			"count":2227,
			"type":"VEC4"
		},
		{
			"bufferView":4,
			"componentType":5126,
			"count":2227,
			"type":"VEC4"
		},
		{
			"bufferView":5,
			"componentType":5123,
			"count":11694,
			"type":"SCALAR"
		},
		{
			"bufferView":6,
			"componentType":5126,
			"count":12,
			"type":"MAT4"
		},
		{
			"bufferView":7,
			"componentType":5126,
			"count":3,
			"max":[
				0.6666666666666666
			],
			"min":[
				0.016666666666666666
			],
			"type":"SCALAR"
		},
		{
			"bufferView":8,
			"componentType":5126,
			"count":9,
			"type":"VEC3"
		},
		{
			"bufferView":9,
			"componentType":5126,
			"count":9,
			"type":"VEC4"
		},
		{
			"bufferView":10,
			"componentType":5126,
			"count":9,
			"type":"VEC3"
		},
		{
			"bufferView":11,
			"componentType":5126,
			"count":9,
			"type":"VEC3"
		},
		{
			"bufferView":12,
			"componentType":5126,
			"count":9,
			"type":"VEC4"
		},
		{
			"bufferView":13,
			"componentType":5126,
			"count":9,
			"type":"VEC3"
		},
		{
			"bufferView":14,
			"componentType":5126,
			"count":9,
			"type":"VEC3"
		},
		{
			"bufferView":15,
			"componentType":5126,
			"count":9,
			"type":"VEC4"
		},
		{
			"bufferView":16,
			"componentType":5126,
			"count":9,
			"type":"VEC3"
		},
		{
			"bufferView":17,
			"componentType":5126,
			"count":9,
			"type":"VEC3"
		},
		{
			"bufferView":18,
			"componentType":5126,
			"count":9,
			"type":"VEC4"
		},
		{
			"bufferView":19,
			"componentType":5126,
			"count":9,
			"type":"VEC3"
		},
		{
			"bufferView":20,
			"componentType":5126,
			"count":9,
			"type":"VEC3"
		},
		{
			"bufferView":21,
			"componentType":5126,
			"count":9,
			"type":"VEC4"
		},
		{
			"bufferView":22,
			"componentType":5126,
			"count":9,
			"type":"VEC3"
		},
		{
			"bufferView":23,
			"componentType":5126,
			"count":9,
			"type":"VEC3"
		},
		{
			"bufferView":24,
			"componentType":5126,
			"count":9,
			"type":"VEC4"
		},
		{
			"bufferView":25,
			"componentType":5126,
			"count":9,
			"type":"VEC3"
		},
		{
			"bufferView":26,
			"componentType":5126,
			"count":9,
			"type":"VEC3"
		},
		{
			"bufferView":27,
			"componentType":5126,
			"count":9,
			"type":"VEC4"
		},
		{
			"bufferView":28,
			"componentType":5126,
			"count":9,
			"type":"VEC3"
		},
		{
			"bufferView":29,
			"componentType":5126,
			"count":9,
			"type":"VEC3"
		},
		{
			"bufferView":30,
			"componentType":5126,
			"count":9,
			"type":"VEC4"
		},
		{
			"bufferView":31,
			"componentType":5126,
			"count":9,
			"type":"VEC3"
		},
		{
			"bufferView":32,
			"componentType":5126,
			"count":9,
			"type":"VEC3"
		},
		{
			"bufferView":33,
			"componentType":5126,
			"count":9,
			"type":"VEC4"
		},
		{
			"bufferView":34,
			"componentType":5126,
			"count":9,
			"type":"VEC3"
		},
		{
			"bufferView":35,
			"componentType":5126,
			"count":9,
			"type":"VEC3"
		},
		{
			"bufferView":36,
			"componentType":5126,
			"count":9,
			"type":"VEC4"
		},
		{
			"bufferView":37,
			"componentType":5126,
			"count":9,
			"type":"VEC3"
		},
		{
			"bufferView":38,
			"componentType":5126,
			"count":9,
			"type":"VEC3"
		},
		{
			"bufferView":39,
			"componentType":5126,
			"count":9,
			"type":"VEC4"
		},
		{
			"bufferView":40,
			"componentType":5126,
			"count":9,
			"type":"VEC3"
		},
		{
			"bufferView":41,
			"componentType":5126,
			"count":9,
			"type":"VEC3"
		},
		{
			"bufferView":42,
			"componentType":5126,
			"count":9,
			"type":"VEC4"
		},
		{
			"bufferView":43,
			"componentType":5126,
			"count":9,
			"type":"VEC3"
		},
		{
			"bufferView":44,
			"componentType":5126,
			"count":9,
			"type":"VEC3"
		},
		{
			"bufferView":45,
			"componentType":5126,
			"count":9,
			"type":"VEC4"
		},
		{
			"bufferView":46,
			"componentType":5126,
			"count":9,
			"type":"VEC3"
		},
		{
			"bufferView":47,
			"componentType":5126,
			"count":9,
			"type":"VEC3"
		},
		{
			"bufferView":48,
			"componentType":5126,
			"count":9,
			"type":"VEC4"
		},
		{
			"bufferView":49,
			"componentType":5126,
			"count":9,
			"type":"VEC3"
		},
		{
			"bufferView":50,
			"componentType":5126,
			"count":9,
			"type":"VEC3"
		},
		{
			"bufferView":51,
			"componentType":5126,
			"count":9,
			"type":"VEC4"
		},
		{
			"bufferView":52,
			"componentType":5126,
			"count":9,
			"type":"VEC3"
		},
		{
			"bufferView":53,
			"componentType":5126,
			"count":9,
			"type":"VEC3"
		},
		{
			"bufferView":54,
			"componentType":5126,
			"count":9,
			"type":"VEC4"
		},
		{
			"bufferView":55,
			"componentType":5126,
			"count":9,
			"type":"VEC3"
		},
		{
			"bufferView":56,
			"componentType":5126,
			"count":9,
			"type":"VEC3"
		},
		{
			"bufferView":57,
			"componentType":5126,
			"count":9,
			"type":"VEC4"
		},
		{
			"bufferView":58,
			"componentType":5126,
			"count":9,
			"type":"VEC3"
		},
		{
			"bufferView":59,
			"componentType":5126,
			"count":9,
			"type":"VEC3"
		},
		{
			"bufferView":60,
			"componentType":5126,
			"count":9,
			"type":"VEC4"
		},
		{
			"bufferView":61,
			"componentType":5126,
			"count":9,
			"type":"VEC3"
		},
		{
			"bufferView":62,
			"componentType":5126,
			"count":9,
			"type":"VEC3"
		},
		{
			"bufferView":63,
			"componentType":5126,
			"count":9,
			"type":"VEC4"
		},
		{
			"bufferView":64,
			"componentType":5126,
			"count":9,
			"type":"VEC3"
		},
		{
			"bufferView":65,
			"componentType":5126,
			"count":9,
			"type":"VEC3"
		},
		{
			"bufferView":66,
			"componentType":5126,
			"count":9,
			"type":"VEC4"
		},
		{
			"bufferView":67,
			"componentType":5126,
			"count":9,
			"type":"VEC3"
		},
		{
			"bufferView":68,
			"componentType":5126,
			"count":9,
			"type":"VEC3"
		},
		{
			"bufferView":69,
			"componentType":5126,
			"count":9,
			"type":"VEC4"
		},
		{
			"bufferView":70,
			"componentType":5126,
			"count":9,
			"type":"VEC3"
		},
		{
			"bufferView":71,
			"componentType":5126,
			"count":9,
			"type":"VEC3"
		},
		{
			"bufferView":72,
			"componentType":5126,
			"count":9,
			"type":"VEC4"
		},
		{
			"bufferView":73,
			"componentType":5126,
			"count":9,
			"type":"VEC3"
		},
		{
			"bufferView":74,
			"componentType":5126,
			"count":9,
			"type":"VEC3"
		},
		{
			"bufferView":75,
			"componentType":5126,
			"count":9,
			"type":"VEC4"
		},
		{
			"bufferView":76,
			"componentType":5126,
			"count":9,
			"type":"VEC3"
		},
		{
			"bufferView":77,
			"componentType":5126,
			"count":9,
			"type":"VEC3"
		},
		{
			"bufferView":78,
			"componentType":5126,
			"count":9,
			"type":"VEC4"
		},
		{
			"bufferView":79,
			"componentType":5126,
			"count":9,
			"type":"VEC3"
		},
		{
			"bufferView":80,
			"componentType":5126,
			"count":3,
			"max":[
				0.6666666666666666
			],
			"min":[
				0.016666666666666666
			],
			"type":"SCALAR"
		},
		{
			"bufferView":81,
			"componentType":5126,
			"count":9,
			"type":"VEC3"
		},
		{
			"bufferView":82,
			"componentType":5126,
			"count":9,
			"type":"VEC4"
		},
		{
			"bufferView":83,
			"componentType":5126,
			"count":9,
			"type":"VEC3"
		},
		{
			"bufferView":84,
			"componentType":5126,
			"count":9,
			"type":"VEC3"
		},
		{
			"bufferView":85,
			"componentType":5126,
			"count":9,
			"type":"VEC4"
		},
		{
			"bufferView":86,
			"componentType":5126,
			"count":9,
			"type":"VEC3"
		},
		{
			"bufferView":87,
			"componentType":5126,
			"count":9,
			"type":"VEC3"
		},
		{
			"bufferView":88,
			"componentType":5126,
			"count":9,
			"type":"VEC4"
		},
		{
			"bufferView":89,
			"componentType":5126,
			"count":9,
			"type":"VEC3"
		},
		{
			"bufferView":90,
			"componentType":5126,
			"count":9,
			"type":"VEC3"
		},
		{
			"bufferView":91,
			"componentType":5126,
			"count":9,
			"type":"VEC4"
		},
		{
			"bufferView":92,
			"componentType":5126,
			"count":9,
			"type":"VEC3"
		},
		{
			"bufferView":93,
			"componentType":5126,
			"count":9,
			"type":"VEC3"
		},
		{
			"bufferView":94,
			"componentType":5126,
			"count":9,
			"type":"VEC4"
		},
		{
			"bufferView":95,
			"componentType":5126,
			"count":9,
			"type":"VEC3"
		},
		{
			"bufferView":96,
			"componentType":5126,
			"count":9,
			"type":"VEC3"
		},
		{
			"bufferView":97,
			"componentType":5126,
			"count":9,
			"type":"VEC4"
		},
		{
			"bufferView":98,
			"componentType":5126,
			"count":9,
			"type":"VEC3"
		},
		{
			"bufferView":99,
			"componentType":5126,
			"count":9,
			"type":"VEC3"
		},
		{
			"bufferView":100,
			"componentType":5126,
			"count":9,
			"type":"VEC4"
		},
		{
			"bufferView":101,
			"componentType":5126,
			"count":9,
			"type":"VEC3"
		},
		{
			"bufferView":102,
			"componentType":5126,
			"count":9,
			"type":"VEC3"
		},
		{
			"bufferView":103,
			"componentType":5126,
			"count":9,
			"type":"VEC4"
		},
		{
			"bufferView":104,
			"componentType":5126,
			"count":9,
			"type":"VEC3"
		},
		{
			"bufferView":105,
			"componentType":5126,
			"count":9,
			"type":"VEC3"
		},
		{
			"bufferView":106,
			"componentType":5126,
			"count":9,
			"type":"VEC4"
		},
		{
			"bufferView":107,
			"componentType":5126,
			"count":9,
			"type":"VEC3"
		},
		{
			"bufferView":108,
			"componentType":5126,
			"count":9,
			"type":"VEC3"
		},
		{
			"bufferView":109,
			"componentType":5126,
			"count":9,
			"type":"VEC4"
		},
		{
			"bufferView":110,
			"componentType":5126,
			"count":9,
			"type":"VEC3"
		},
		{
			"bufferView":111,
			"componentType":5126,
			"count":9,
			"type":"VEC3"
		},
		{
			"bufferView":112,
			"componentType":5126,
			"count":9,
			"type":"VEC4"
		},
		{
			"bufferView":113,
			"componentType":5126,
			"count":9,
			"type":"VEC3"
		},
		{
			"bufferView":114,
			"componentType":5126,
			"count":9,
			"type":"VEC3"
		},
		{
			"bufferView":115,
			"componentType":5126,
			"count":9,
			"type":"VEC4"
		},
		{
			"bufferView":116,
			"componentType":5126,
			"count":9,
			"type":"VEC3"
		},
		{
			"bufferView":117,
			"componentType":5126,
			"count":2,
			"max":[
				0.6666666666666666
			],
			"min":[
				0.016666666666666666
			],
			"type":"SCALAR"
		},
		{
			"bufferView":118,
			"componentType":5126,
			"count":6,
			"type":"VEC3"
		},
		{
			"bufferView":119,
			"componentType":5126,
			"count":6,
			"type":"VEC4"
		},
		{
			"bufferView":120,
			"componentType":5126,
			"count":6,
			"type":"VEC3"
		},
		{
			"bufferView":121,
			"componentType":5126,
			"count":6,
			"type":"VEC3"
		},
		{
			"bufferView":122,
			"componentType":5126,
			"count":6,
			"type":"VEC4"
		},
		{
			"bufferView":123,
			"componentType":5126,
			"count":6,
			"type":"VEC3"
		},
		{
			"bufferView":124,
			"componentType":5126,
			"count":6,
			"type":"VEC3"
		},
		{
			"bufferView":125,
			"componentType":5126,
			"count":6,
			"type":"VEC4"
		},
		{
			"bufferView":126,
			"componentType":5126,
			"count":6,
			"type":"VEC3"
		},
		{
			"bufferView":127,
			"componentType":5126,
			"count":6,
			"type":"VEC3"
		},
		{
			"bufferView":128,
			"componentType":5126,
			"count":6,
			"type":"VEC4"
		},
		{
			"bufferView":129,
			"componentType":5126,
			"count":6,
			"type":"VEC3"
		},
		{
			"bufferView":130,
			"componentType":5126,
			"count":6,
			"type":"VEC3"
		},
		{
			"bufferView":131,
			"componentType":5126,
			"count":6,
			"type":"VEC4"
		},
		{
			"bufferView":132,
			"componentType":5126,
			"count":6,
			"type":"VEC3"
		},
		{
			"bufferView":133,
			"componentType":5126,
			"count":6,
			"type":"VEC3"
		},
		{
			"bufferView":134,
			"componentType":5126,
			"count":6,
			"type":"VEC4"
		},
		{
			"bufferView":135,
			"componentType":5126,
			"count":6,
			"type":"VEC3"
		},
		{
			"bufferView":136,
			"componentType":5126,
			"count":6,
			"type":"VEC3"
		},
		{
			"bufferView":137,
			"componentType":5126,
			"count":6,
			"type":"VEC4"
		},
		{
			"bufferView":138,
			"componentType":5126,
			"count":6,
			"type":"VEC3"
		},
		{
			"bufferView":139,
			"componentType":5126,
			"count":6,
			"type":"VEC3"
		},
		{
			"bufferView":140,
			"componentType":5126,
			"count":6,
			"type":"VEC4"
		},
		{
			"bufferView":141,
			"componentType":5126,
			"count":6,
			"type":"VEC3"
		},
		{
			"bufferView":142,
			"componentType":5126,
			"count":6,
			"type":"VEC3"
		},
		{
			"bufferView":143,
			"componentType":5126,
			"count":6,
			"type":"VEC4"
		},
		{
			"bufferView":144,
			"componentType":5126,
			"count":6,
			"type":"VEC3"
		},
		{
			"bufferView":145,
			"componentType":5126,
			"count":6,
			"type":"VEC3"
		},
		{
			"bufferView":146,
			"componentType":5126,
			"count":6,
			"type":"VEC4"
		},
		{
			"bufferView":147,
			"componentType":5126,
			"count":6,
			"type":"VEC3"
		},
		{
			"bufferView":148,
			"componentType":5126,
			"count":6,
			"type":"VEC3"
		},
		{
			"bufferView":149,
			"componentType":5126,
			"count":6,
			"type":"VEC4"
		},
		{
			"bufferView":150,
			"componentType":5126,
			"count":6,
			"type":"VEC3"
		},
		{
			"bufferView":151,
			"componentType":5126,
			"count":6,
			"type":"VEC3"
		},
		{
			"bufferView":152,
			"componentType":5126,
			"count":6,
			"type":"VEC4"
		},
		{
			"bufferView":153,
			"componentType":5126,
			"count":6,
			"type":"VEC3"
		},
		{
			"bufferView":154,
			"componentType":5126,
			"count":5,
			"max":[
				0.6666666666666666
			],
			"min":[
				0.016666666666666666
			],
			"type":"SCALAR"
		},
		{
			"bufferView":155,
			"componentType":5126,
			"count":15,
			"type":"VEC3"
		},
		{
			"bufferView":156,
			"componentType":5126,
			"count":15,
			"type":"VEC4"
		},
		{
			"bufferView":157,
			"componentType":5126,
			"count":15,
			"type":"VEC3"
		},
		{
			"bufferView":158,
			"componentType":5126,
			"count":15,
			"type":"VEC3"
		},
		{
			"bufferView":159,
			"componentType":5126,
			"count":15,
			"type":"VEC4"
		},
		{
			"bufferView":160,
			"componentType":5126,
			"count":15,
			"type":"VEC3"
		},
		{
			"bufferView":161,
			"componentType":5126,
			"count":15,
			"type":"VEC3"
		},
		{
			"bufferView":162,
			"componentType":5126,
			"count":15,
			"type":"VEC4"
		},
		{
			"bufferView":163,
			"componentType":5126,
			"count":15,
			"type":"VEC3"
		},
		{
			"bufferView":164,
			"componentType":5126,
			"count":15,
			"type":"VEC3"
		},
		{
			"bufferView":165,
			"componentType":5126,
			"count":15,
			"type":"VEC4"
		},
		{
			"bufferView":166,
			"componentType":5126,
			"count":15,
			"type":"VEC3"
		},
		{
			"bufferView":167,
			"componentType":5126,
			"count":15,
			"type":"VEC3"
		},
		{
			"bufferView":168,
			"componentType":5126,
			"count":15,
			"type":"VEC4"
		},
		{
			"bufferView":169,
			"componentType":5126,
			"count":15,
			"type":"VEC3"
		}
	],
	"bufferViews":[
		{
			"buffer":0,
			"byteLength":26724,
			"byteOffset":0,
			"target":34962
		},
		{
			"buffer":0,
			"byteLength":26724,
			"byteOffset":26724,
			"target":34962
		},
		{
			"buffer":0,
			"byteLength":17816,
			"byteOffset":53448,
			"target":34962
		},
		{
			"buffer":0,
			"byteLength":8908,
			"byteOffset":71264,
			"target":34962
		},
		{
			"buffer":0,
			"byteLength":35632,
			"byteOffset":80172,
			"target":34962
		},
		{
			"buffer":0,
			"byteLength":23388,
			"byteOffset":115804,
			"target":34963
		},
		{
			"buffer":0,
			"byteLength":768,
			"byteOffset":139192
		},
		{
			"buffer":0,
			"byteLength":12,
			"byteOffset":139960
		},
		{
			"buffer":0,
			"byteLength":108,
			"byteOffset":139972
		},
		{
			"buffer":0,
			"byteLength":144,
			"byteOffset":140080
		},
		{
			"buffer":0,
			"byteLength":108,
			"byteOffset":140224
		},
		{
			"buffer":0,
			"byteLength":108,
			"byteOffset":140332
		},
		{
			"buffer":0,
			"byteLength":144,
			"byteOffset":140440
		},
		{
			"buffer":0,
			"byteLength":108,
			"byteOffset":140584
		},
		{
			"buffer":0,
			"byteLength":108,
			"byteOffset":140692
		},
		{
			"buffer":0,
			"byteLength":144,
			"byteOffset":140800
		},
		{
			"buffer":0,
			"byteLength":108,
			"byteOffset":140944
		},
		{
			"buffer":0,
			"byteLength":108,
			"byteOffset":141052
		},
		{
			"buffer":0,
			"byteLength":144,
			"byteOffset":141160
		},
		{
			"buffer":0,
			"byteLength":108,
			"byteOffset":141304
		},
		{
			"buffer":0,
			"byteLength":108,
			"byteOffset":141412
		},
		{
			"buffer":0,
			"byteLength":144,
			"byteOffset":141520
		},
		{
			"buffer":0,
			"byteLength":108,
			"byteOffset":141664
		},
		{
			"buffer":0,
			"byteLength":108,
			"byteOffset":141772
		},
		{
			"buffer":0,
			"byteLength":144,
			"byteOffset":141880
		},
		{
			"buffer":0,
			"byteLength":108,
			"byteOffset":142024
		},
		{
			"buffer":0,
			"byteLength":108,
			"byteOffset":142132
		},
		{
			"buffer":0,
			"byteLength":144,
			"byteOffset":142240
		},
		{
			"buffer":0,
			"byteLength":108,
			"byteOffset":142384
		},
		{
			"buffer":0,
			"byteLength":108,
			"byteOffset":142492
		},
		{
			"buffer":0,
			"byteLength":144,
			"byteOffset":142600
		},
		{
			"buffer":0,
			"byteLength":108,
			"byteOffset":142744
		},
		{
			"buffer":0,
			"byteLength":108,
			"byteOffset":142852
		},
		{
			"buffer":0,
			"byteLength":144,
			"byteOffset":142960
		},
		{
			"buffer":0,
			"byteLength":108,
			"byteOffset":143104
		},
		{
			"buffer":0,
			"byteLength":108,
			"byteOffset":143212
		},
		{
			"buffer":0,
			"byteLength":144,
			"byteOffset":143320
		},
		{
			"buffer":0,
			"byteLength":108,
			"byteOffset":143464
		},
		{
			"buffer":0,
			"byteLength":108,
			"byteOffset":143572
		},
		{
			"buffer":0,
			"byteLength":144,
			"byteOffset":143680
		},
		{
			"buffer":0,
			"byteLength":108,
			"byteOffset":143824
		},
		{
			"buffer":0,
			"byteLength":108,
			"byteOffset":143932
		},
		{
			"buffer":0,
			"byteLength":144,
			"byteOffset":144040
		},
		{
			"buffer":0,
			"byteLength":108,
			"byteOffset":144184
		},
		{
			"buffer":0,
			"byteLength":108,
			"byteOffset":144292
		},
		{
			"buffer":0,
			"byteLength":144,
			"byteOffset":144400
		},
		{
			"buffer":0,
			"byteLength":108,
			"byteOffset":144544
		},
		{
			"buffer":0,
			"byteLength":108,
			"byteOffset":144652
		},
		{
			"buffer":0,
			"byteLength":144,
			"byteOffset":144760
		},
		{
			"buffer":0,
			"byteLength":108,
			"byteOffset":144904
		},
		{
			"buffer":0,
			"byteLength":108,
			"byteOffset":145012
		},
		{
			"buffer":0,
			"byteLength":144,
			"byteOffset":145120
		},
		{
			"buffer":0,
			"byteLength":108,
			"byteOffset":145264
		},
		{
			"buffer":0,
			"byteLength":108,
			"byteOffset":145372
		},
		{
			"buffer":0,
			"byteLength":144,
			"byteOffset":145480
		},
		{
			"buffer":0,
			"byteLength":108,
			"byteOffset":145624
		},
		{
			"buffer":0,
			"byteLength":108,
			"byteOffset":145732
		},
		{
			"buffer":0,
			"byteLength":144,
			"byteOffset":145840
		},
		{
			"buffer":0,
			"byteLength":108,
			"byteOffset":145984
		},
		{
			"buffer":0,
			"byteLength":108,
			"byteOffset":146092
		},
		{
			"buffer":0,
			"byteLength":144,
			"byteOffset":146200
		},
		{
			"buffer":0,
			"byteLength":108,
			"byteOffset":146344
		},
		{
			"buffer":0,
			"byteLength":108,
			"byteOffset":146452
		},
		{
			"buffer":0,
			"byteLength":144,
			"byteOffset":146560
		},
		{
			"buffer":0,
			"byteLength":108,
			"byteOffset":146704
		},
		{
			"buffer":0,
			"byteLength":108,
			"byteOffset":146812
		},
		{
			"buffer":0,
			"byteLength":144,
			"byteOffset":146920
		},
		{
			"buffer":0,
			"byteLength":108,
			"byteOffset":147064
		},
		{
			"buffer":0,
			"byteLength":108,
			"byteOffset":147172
		},
		{
			"buffer":0,
			"byteLength":144,
			"byteOffset":147280
		},
		{
			"buffer":0,
			"byteLength":108,
			"byteOffset":147424
		},
		{
			"buffer":0,
			"byteLength":108,
			"byteOffset":147532
		},
		{
			"buffer":0,
			"byteLength":144,
			"byteOffset":147640
		},
		{
			"buffer":0,
			"byteLength":108,
			"byteOffset":147784
		},
		{
			"buffer":0,
			"byteLength":108,
			"byteOffset":147892
		},
		{
			"buffer":0,
			"byteLength":144,
			"byteOffset":148000
		},
		{
			"buffer":0,
			"byteLength":108,
			"byteOffset":148144
		},
		{
			"buffer":0,
			"byteLength":108,
			"byteOffset":148252
		},
		{
			"buffer":0,
			"byteLength":144,
			"byteOffset":148360
		},
		{
			"buffer":0,
			"byteLength":108,
			"byteOffset":148504
		},
		{
			"buffer":0,
			"byteLength":12,
			"byteOffset":148612
		},
		{
			"buffer":0,
			"byteLength":108,
			"byteOffset":148624
		},
		{
			"buffer":0,
			"byteLength":144,
			"byteOffset":148732
		},
		{
			"buffer":0,
			"byteLength":108,
			"byteOffset":148876
		},
		{
			"buffer":0,
			"byteLength":108,
			"byteOffset":148984
		},
		{
			"buffer":0,
			"byteLength":144,
			"byteOffset":149092
		},
		{
			"buffer":0,
			"byteLength":108,
			"byteOffset":149236
		},
		{
			"buffer":0,
			"byteLength":108,
			"byteOffset":149344
		},
		{
			"buffer":0,
			"byteLength":144,
			"byteOffset":149452
		},
		{
			"buffer":0,
			"byteLength":108,
			"byteOffset":149596
		},
		{
			"buffer":0,
			"byteLength":108,
			"byteOffset":149704
		},
		{
			"buffer":0,
			"byteLength":144,
			"byteOffset":149812
		},
		{
			"buffer":0,
			"byteLength":108,
			"byteOffset":149956
		},
		{
			"buffer":0,
			"byteLength":108,
			"byteOffset":150064
		},
		{
			"buffer":0,
			"byteLength":144,
			"byteOffset":150172
		},
		{
			"buffer":0,
			"byteLength":108,
			"byteOffset":150316
		},
		{
			"buffer":0,
			"byteLength":108,
			"byteOffset":150424
		},
		{
			"buffer":0,
			"byteLength":144,
			"byteOffset":150532
		},
		{
			"buffer":0,
			"byteLength":108,
			"byteOffset":150676
		},
		{
			"buffer":0,
			"byteLength":108,
			"byteOffset":150784
		},
		{
			"buffer":0,
			"byteLength":144,
			"byteOffset":150892
		},
		{
			"buffer":0,
			"byteLength":108,
			"byteOffset":151036
		},
		{
			"buffer":0,
			"byteLength":108,
			"byteOffset":151144
		},
		{
			"buffer":0,
			"byteLength":144,
			"byteOffset":151252
		},
		{
			"buffer":0,
			"byteLength":108,
			"byteOffset":151396
		},
		{
			"buffer":0,
			"byteLength":108,
			"byteOffset":151504
		},
		{
			"buffer":0,
			"byteLength":144,
			"byteOffset":151612
		},
		{
			"buffer":0,
			"byteLength":108,
			"byteOffset":151756
		},
		{
			"buffer":0,
			"byteLength":108,
			"byteOffset":151864
		},
		{
			"buffer":0,
			"byteLength":144,
			"byteOffset":151972
		},
		{
			"buffer":0,
			"byteLength":108,
			"byteOffset":152116
		},
		{
			"buffer":0,
			"byteLength":108,
			"byteOffset":152224
		},
		{
			"buffer":0,
			"byteLength":144,
			"byteOffset":152332
		},
		{
			"buffer":0,
			"byteLength":108,
			"byteOffset":152476
		},
		{
			"buffer":0,
			"byteLength":108,
			"byteOffset":152584
		},
		{
			"buffer":0,
			"byteLength":144,
			"byteOffset":152692
		},
		{
			"buffer":0,
			"byteLength":108,
			"byteOffset":152836
		},
		{
			"buffer":0,
			"byteLength":8,
			"byteOffset":152944
		},
		{
			"buffer":0,
			"byteLength":72,
			"byteOffset":152952
		},
		{
			"buffer":0,
			"byteLength":96,
			"byteOffset":153024
		},
		{
			"buffer":0,
			"byteLength":72,
			"byteOffset":153120
		},
		{
			"buffer":0,
			"byteLength":72,
			"byteOffset":153192
		},
		{
			"buffer":0,
			"byteLength":96,
			"byteOffset":153264
		},
		{
			"buffer":0,
			"byteLength":72,
			"byteOffset":153360
		},
		{
			"buffer":0,
			"byteLength":72,
			"byteOffset":153432
		},
		{
			"buffer":0,
			"byteLength":96,
			"byteOffset":153504
		},
		{
			"buffer":0,
			"byteLength":72,
			"byteOffset":153600
		},
		{
			"buffer":0,
			"byteLength":72,
			"byteOffset":153672
		},
		{
			"buffer":0,
			"byteLength":96,
			"byteOffset":153744
		},
		{
			"buffer":0,
			"byteLength":72,
			"byteOffset":153840
		},
		{
			"buffer":0,
			"byteLength":72,
			"byteOffset":153912
		},
		{
			"buffer":0,
			"byteLength":96,
			"byteOffset":153984
		},
		{
			"buffer":0,
			"byteLength":72,
			"byteOffset":154080
		},
		{
			"buffer":0,
			"byteLength":72,
			"byteOffset":154152
		},
		{
			"buffer":0,
			"byteLength":96,
			"byteOffset":154224
		},
		{
			"buffer":0,
			"byteLength":72,
			"byteOffset":154320
		},
		{
			"buffer":0,
			"byteLength":72,
			"byteOffset":154392
		},
		{
			"buffer":0,
			"byteLength":96,
			"byteOffset":154464
		},
		{
			"buffer":0,
			"byteLength":72,
			"byteOffset":154560
		},
		{
			"buffer":0,
			"byteLength":72,
			"byteOffset":154632
		},
		{
			"buffer":0,
			"byteLength":96,
			"byteOffset":154704
		},
		{
			"buffer":0,
			"byteLength":72,
			"byteOffset":154800
		},
		{
			"buffer":0,
			"byteLength":72,
			"byteOffset":154872
		},
		{
			"buffer":0,
			"byteLength":96,
			"byteOffset":154944
		},
		{
			"buffer":0,
			"byteLength":72,
			"byteOffset":155040
		},
		{
			"buffer":0,
			"byteLength":72,
			"byteOffset":155112
		},
		{
			"buffer":0,
			"byteLength":96,
			"byteOffset":155184
		},
		{
			"buffer":0,
			"byteLength":72,
			"byteOffset":155280
		},
		{
			"buffer":0,
			"byteLength":72,
			"byteOffset":155352
		},
		{
			"buffer":0,
			"byteLength":96,
			"byteOffset":155424
		},
		{
			"buffer":0,
			"byteLength":72,
			"byteOffset":155520
		},
		{
			"buffer":0,
			"byteLength":72,
			"byteOffset":155592
		},
		{
			"buffer":0,
			"byteLength":96,
			"byteOffset":155664
		},
		{
			"buffer":0,
			"byteLength":72,
			"byteOffset":155760
		},
		{
			"buffer":0,
			"byteLength":20,
			"byteOffset":155832
		},
		{
			"buffer":0,
			"byteLength":180,
			"byteOffset":155852
		},
		{
			"buffer":0,
			"byteLength":240,
			"byteOffset":156032
		},
		{
			"buffer":0,
			"byteLength":180,
			"byteOffset":156272
		},
		{
			"buffer":0,
			"byteLength":180,
			"byteOffset":156452
		},
		{
			"buffer":0,
			"byteLength":240,
			"byteOffset":156632
		},
		{
			"buffer":0,
			"byteLength":180,
			"byteOffset":156872
		},
		{
			"buffer":0,
			"byteLength":180,
			"byteOffset":157052
		},
		{
			"buffer":0,
			"byteLength":240,
			"byteOffset":157232
		},
		{
			"buffer":0,
			"byteLength":180,
			"byteOffset":157472
		},
		{
			"buffer":0,
			"byteLength":180,
			"byteOffset":157652
		},
		{
			"buffer":0,
			"byteLength":240,
			"byteOffset":157832
		},
		{
			"buffer":0,
			"byteLength":180,
			"byteOffset":158072
		},
		{
			"buffer":0,
			"byteLength":180,
			"byteOffset":158252
		},
		{
			"buffer":0,
			"byteLength":240,
			"byteOffset":158432
		},
		{
			"buffer":0,
			"byteLength":180,
			"byteOffset":158672
		}
	],
	"samplers":[
		{
			"magFilter":9729,
			"minFilter":9987
		}
	],
	"buffers":[
		{
			"byteLength":158852,
			"uri":"Player.bin"
		}
	]
}
