{
	"asset":{
		"generator":"Khronos glTF Blender I/O v4.5.47",
		"version":"2.0"
	},
	"scene":0,
	"scenes":[
		{
			"name":"Scene",
			"nodes":[
				0
			]
		}
	],
	"nodes":[
		{
			"mesh":0,
			"name":"\u7acb\u65b9\u4f53"
		}
	],
	"materials":[
		{
			"doubleSided":true,
			"name":"\u30de\u30c6\u30ea\u30a2\u30eb",
			"pbrMetallicRoughness":{
				"baseColorTexture":{
					"index":0
				},
				"metallicFactor":0,
				"roughnessFactor":0.5
			}
		}
	],
	"meshes":[
		{
			"name":"\u7acb\u65b9\u4f53",
			"primitives":[
				{
					"attributes":{
						"POSITION":0,
						"NORMAL":1,
						"TEXCOORD_0":2
					},
					"indices":3,
					"material":0
				}
			]
		}
	],
	"textures":[
		{
			"sampler":0,
			"source":0
		}
	],
	"images":[
		{
			"mimeType":"image/png",
			"name":"Player",
			"uri":"Player.png"
		}
	],
	"accessors":[
		{
			"bufferView":0,
			"componentType":5126,
			"count":580,
			"max":[
				1.1178994178771973,
				1.812506079673767,
				3.669407367706299
			],
			"min":[
				-1.1178994178771973,
				-1.078965187072754,
				-3.669407367706299
			],
			"type":"VEC3"
		},
		{
			"bufferView":1,
			"componentType":5126,
			"count":580,
			"type":"VEC3"
		},
		{
			"bufferView":2,
			"componentType":5126,
			"count":580,
			"type":"VEC2"
		},
		{
			"bufferView":3,
			"componentType":5123,
			"count":1731,
			"type":"SCALAR"
		}
	],
	"bufferViews":[
		{
			"buffer":0,
			"byteLength":6960,
			"byteOffset":0,
			"target":34962
		},
		{
			"buffer":0,
			"byteLength":6960,
			"byteOffset":6960,
			"target":34962
		},
		{
			"buffer":0,
			"byteLength":4640,
			"byteOffset":13920,
			"target":34962
		},
		{
			"buffer":0,
			"byteLength":3462,
			"byteOffset":18560,
			"target":34963
		}
	],
	"samplers":[
		{
			"magFilter":9729,
			"minFilter":9987
		}
	],
	"buffers":[
		{
			"byteLength":22024,
			"uri":"Player.bin"
		}
	]
}
