{
	"asset":{
		"generator":"Khronos glTF Blender I/O v4.5.47",
		"version":"2.0"
	},
	"scene":0,
	"scenes":[
		{
			"name":"Scene",
			"nodes":[
				0
			]
		}
	],
	"nodes":[
		{
			"mesh":0,
			"name":"\u7403.001"
		}
	],
	"materials":[
		{
			"doubleSided":true,
			"name":"\u30de\u30c6\u30ea\u30a2\u30eb.002",
			"pbrMetallicRoughness":{
				"baseColorTexture":{
					"index":0
				},
				"metallicFactor":0,
				"roughnessFactor":0.5
			}
		}
	],
	"meshes":[
		{
			"name":"\u7403.001",
			"primitives":[
				{
					"attributes":{
						"POSITION":0,
						"NORMAL":1,
						"TEXCOORD_0":2
					},
					"indices":3,
					"material":0
				}
			]
		}
	],
	"textures":[
		{
			"sampler":0,
			"source":0
		}
	],
	"images":[
		{
			"mimeType":"image/png",
			"name":"Boss",
			"uri":"Boss.png"
		}
	],
	"accessors":[
		{
			"bufferView":0,
			"componentType":5126,
			"count":4000,
			"max":[
				8.024056434631348,
				9.134963035583496,
				8.02405834197998
			],
			"min":[
				-8.024057388305664,
				-6.0120134353637695,
				-8.024056434631348
			],
			"type":"VEC3"
		},
		{
			"bufferView":1,
			"componentType":5126,
			"count":4000,
			"type":"VEC3"
		},
		{
			"bufferView":2,
			"componentType":5126,
			"count":4000,
			"type":"VEC2"
		},
		{
			"bufferView":3,
			"componentType":5123,
			"count":6120,
			"type":"SCALAR"
		}
	],
	"bufferViews":[
		{
			"buffer":0,
			"byteLength":48000,
			"byteOffset":0,
			"target":34962
		},
		{
			"buffer":0,
			"byteLength":48000,
			"byteOffset":48000,
			"target":34962
		},
		{
			"buffer":0,
			"byteLength":32000,
			"byteOffset":96000,
			"target":34962
		},
		{
			"buffer":0,
			"byteLength":12240,
			"byteOffset":128000,
			"target":34963
		}
	],
	"samplers":[
		{
			"magFilter":9729,
			"minFilter":9987
		}
	],
	"buffers":[
		{
			"byteLength":140240,
			"uri":"Boss.bin"
		}
	]
}
